<svg xmlns="http://www.w3.org/2000/svg" width="135" height="126.031" viewBox="0 0 135 126.031"><defs><style>.a{fill:#f5f7f9}</style></defs><title>icon-star-full</title><path class="a" d="M77.36 5.963L89.7 30.3a10.964 10.964 0 0 0 8.27 5.853l27.6 3.9a10.628 10.628 0 0 1 6.09 18.247l-19.97 18.946a10.528 10.528 0 0 0-3.16 9.47l4.71 26.75c1.54 8.741-7.88 15.4-15.95 11.279l-24.68-12.631a11.263 11.263 0 0 0-10.23 0L37.7 124.745c-8.06 4.126-17.49-2.538-15.95-11.279l4.72-26.75a10.528 10.528 0 0 0-3.16-9.47L3.339 58.3a10.628 10.628 0 0 1 6.09-18.249l27.6-3.9A10.964 10.964 0 0 0 45.3 30.3L57.639 5.962a11.133 11.133 0 0 1 19.721 0z"/></svg>