<svg xmlns="http://www.w3.org/2000/svg" width="15" height="22" viewBox="0 0 15 22"><defs><style>.a,.b{fill:#4a9c19;}.a{fill-rule:evenodd;}</style></defs><title>info</title><path class="a" d="M14.4,13c-.68,2.27-1.49,7.14-5,5.36C7,17.18,7.88,13.88,7.79,11.78c-.11-2.62.14-5.13-2.66-6.42a3.74,3.74,0,0,0-4.3.8C-.36,7.46,0,8.87.35,10.44.74,9.18,1.11,7,3,7.44c1.1.24,1.12,1,1.16,2,.13,3.24-.87,4.75-.08,8A5.89,5.89,0,0,0,12,21.54C15.56,20,15.37,16.26,14.4,13Z"/><circle class="b" cx="8" cy="2" r="2"/></svg>