<svg xmlns="http://www.w3.org/2000/svg" width="25" height="33" viewBox="0 0 25 33"><defs><style>.a{fill:#dd2c00;fill-rule:evenodd;}.b{fill:#1d6bb2;}.c{fill:none;stroke:#1d6bb2;stroke-linecap:round;stroke-linejoin:round;stroke-width:2px;}</style></defs><title>notification</title><path class="a" d="M12.5,28A2.5,2.5,0,1,1,10,30.5,2.5,2.5,0,0,1,12.5,28Z"/><path class="b" d="M14,24.5A1.5,1.5,0,1,1,12.5,23,1.5,1.5,0,0,1,14,24.5Z"/><path class="b" d="M12.5,0h0A1.42,1.42,0,0,0,11,1.33V3.67A1.42,1.42,0,0,0,12.5,5h0A1.42,1.42,0,0,0,14,3.67V1.33A1.42,1.42,0,0,0,12.5,0Z"/><path class="c" d="M23.42,20.16a6.2,6.2,0,0,1-1.56-2.57c-.39-1.4-.75-2.93-1.06-3.93-.55-1.74-1.07-3.38-1.68-4.88C17.8,5.35,15.3,3,12.5,3S7.2,5.35,5.88,8.78c-.61,1.5-1.13,3.15-1.68,4.88-.31,1-.68,2.53-1.06,3.93a6.2,6.2,0,0,1-1.56,2.57,2,2,0,0,0-.56.95C.58,23.09,5.62,23,12.5,23s11.92.11,11.47-1.88A2,2,0,0,0,23.42,20.16Z"/></svg>