<svg xmlns="http://www.w3.org/2000/svg" width="26" height="21" viewBox="0 0 26 21"><defs><style>.a,.b{fill:none;stroke:#f0f0f0;stroke-linecap:round;stroke-linejoin:round;stroke-width:2px}.b{fill-rule:evenodd}</style></defs><title>payments-calendar</title><path class="a" d="M16 4H9"/><path class="b" d="M20 4h3a2 2 0 0 1 2 2v12a2 2 0 0 1-2 2H3a2 2 0 0 1-2-2V6a2 2 0 0 1 2-2h2m4 0V2a1 1 0 0 0-1-1H6a1 1 0 0 0-1 1v2m15 0V2a1 1 0 0 0-1-1h-2a1 1 0 0 0-1 1v2"/><path class="a" d="M7 12h12m-9-3v6m6-6v6"/></svg>