<svg xmlns="http://www.w3.org/2000/svg" width="25.84" height="24" viewBox="0 0 25.84 24"><defs><style>.a{fill:#f0f0f0}.b{fill:none;stroke:#f0f0f0;stroke-linecap:round;stroke-linejoin:round;stroke-width:2px}</style></defs><title>skype</title><path class="a" d="M11 13.32a7.29 7.29 0 0 1-1.5-.75A3.24 3.24 0 0 1 8 9.79 3.48 3.48 0 0 1 9.31 7a5.32 5.32 0 0 1 3.37-1 7 7 0 0 1 3.43 1 1.23 1.23 0 0 1 .51.82 1.2 1.2 0 0 1-.23.93 1.33 1.33 0 0 1-1.81.25 4.59 4.59 0 0 0-1.91-.48c-1 0-2.09.22-2.09 1.29 0 .64.61 1 2.34 1.55a10.39 10.39 0 0 1 2.52 1.11A3.24 3.24 0 0 1 17 15.23 3.53 3.53 0 0 1 15.78 18a4.63 4.63 0 0 1-3.1 1 5.8 5.8 0 0 1-4.31-1.77 1.22 1.22 0 0 1 .26-1.75 1.32 1.32 0 0 1 1-.23 1.29 1.29 0 0 1 .85.49 3.39 3.39 0 0 0 2.23.77 2.58 2.58 0 0 0 1.1-.22 1.09 1.09 0 0 0 .61-1.07c0-.59-.46-.9-2.21-1.5z"/><path class="b" d="M19.06 3.42a10.55 10.55 0 0 1 4.3 10.08.4.4 0 0 0 .1.32 5.53 5.53 0 0 1-7.13 8.31.4.4 0 0 0-.33 0A10.55 10.55 0 0 1 2.48 10.5a.4.4 0 0 0-.1-.32 5.53 5.53 0 0 1 7.13-8.31.4.4 0 0 0 .33 0 10.59 10.59 0 0 1 8 .75z"/></svg>