<svg xmlns="http://www.w3.org/2000/svg" width="25.99" height="24" viewBox="0 0 25.99 24"><defs><style>.a{fill:#fb0;}</style></defs><title>star</title><path class="a" d="M14.9,1.14l2.38,4.64a2.11,2.11,0,0,0,1.59,1.11l5.31.74a2,2,0,0,1,1.17,3.48l-3.85,3.61a2,2,0,0,0-.61,1.8l.91,5.1a2.1,2.1,0,0,1-3.07,2.15L14,21.36a2.19,2.19,0,0,0-2,0L7.26,23.76a2.1,2.1,0,0,1-3.07-2.15l.91-5.1a2,2,0,0,0-.61-1.8L.64,11.11A2,2,0,0,1,1.81,7.63l5.31-.74A2.11,2.11,0,0,0,8.72,5.77L11.1,1.14A2.15,2.15,0,0,1,14.9,1.14Z"/></svg>