<svg xmlns="http://www.w3.org/2000/svg" width="21" height="17" viewBox="0 0 21 17"><defs><style>.a{fill:#8f99a7}</style></defs><title>twitter</title><path class="a" d="M0 15.12c.3 0 .7.1 1 .1a8.42 8.42 0 0 0 5.33-1.78 3.9 3.9 0 0 1-2.51-.89 5.06 5.06 0 0 1-1.51-2.08c.3 0 .6.1.8.1a3.85 3.85 0 0 0 1.11-.1A4.4 4.4 0 0 1 1.71 9a4.45 4.45 0 0 1-1-2.77V6a4.21 4.21 0 0 0 1.91.49A5 5 0 0 1 1.21 5a6.25 6.25 0 0 1-.3-2 4.18 4.18 0 0 1 .6-2.11 13.39 13.39 0 0 0 3.92 3.16 12.11 12.11 0 0 0 4.92 1.28 3.32 3.32 0 0 1-.1-1 4.07 4.07 0 0 1 1.31-3.06 4.21 4.21 0 0 1 3-1.29 4.15 4.15 0 0 1 3.11 1.38A8.05 8.05 0 0 0 20.4.4a4.44 4.44 0 0 1-1.91 2.37A8.78 8.78 0 0 0 21 2.08a8.81 8.81 0 0 1-2.11 2.17v.59a13.71 13.71 0 0 1-.5 3.46 9.68 9.68 0 0 1-1.51 3.26 13.06 13.06 0 0 1-2.41 2.77 11.42 11.42 0 0 1-3.42 2 12.37 12.37 0 0 1-4.32.67A12.12 12.12 0 0 1 0 15.12"/></svg>