<svg xmlns="http://www.w3.org/2000/svg" width="25" height="25" viewBox="0 0 25 25"><defs><style>.a{fill:none;stroke:#f0f0f0;stroke-linecap:round;stroke-linejoin:round;stroke-width:2px}</style></defs><title>viber</title><path class="a" d="M23.94 20.41a2.32 2.32 0 0 0 0-1.18 1.89 1.89 0 0 0-.41-.66 23 23 0 0 0-4.27-3.29 1.77 1.77 0 0 0-.93-.36 2.25 2.25 0 0 0-1.53.7c-.6.56-.52.95-1.05 1.28a2.08 2.08 0 0 1-1.2.26c-1.8 0-3.89-2.17-4.18-2.47-.3-.29-2.44-2.38-2.47-4.18a2.08 2.08 0 0 1 .26-1.2c.33-.53.72-.46 1.28-1.05a2.25 2.25 0 0 0 .7-1.53 1.78 1.78 0 0 0-.36-.93 23 23 0 0 0-3.35-4.3 1.89 1.89 0 0 0-.66-.41 2.32 2.32 0 0 0-1.18 0 5.35 5.35 0 0 0-3.24 2.53l-.22.49c-1 2.2 4.12 9.67 7.11 12.65s10.46 8.11 12.65 7.11l.49-.22a5.35 5.35 0 0 0 2.56-3.24zM14.22 7.35a3.37 3.37 0 0 1 3.14 3.39M13.6 4.32a7.08 7.08 0 0 1 4.74 2 7.13 7.13 0 0 1 2 5.08"/><path class="a" d="M13.24 1.35a10.81 10.81 0 0 1 7.35 3.09 10.85 10.85 0 0 1 3.09 7.68"/></svg>