<svg xmlns="http://www.w3.org/2000/svg" width="25" height="25" viewBox="0 0 25 25"><defs><style>.a{fill:none;stroke:#f0f0f0;stroke-miterlimit:10;stroke-width:2px;}.a,.b,.c{fill-rule:evenodd;}.b{fill:#f0f0f0;}</style></defs><title>whatsapp</title><path class="a" d="M3.31,18.35l-.24-.4a11.09,11.09,0,0,1-1.61-5.77A11.27,11.27,0,1,1,12.73,23.36,11.35,11.35,0,0,1,7.28,22l-.38-.21L1.58,23.45Z"/><path class="b" d="M18.93,15c-.08-.12-.28-.2-.58-.35s-1.78-.87-2.06-1-.48-.15-.68.15-.78,1-1,1.17-.35.22-.65.07a8.23,8.23,0,0,1-2.42-1.48,9.08,9.08,0,0,1-1.67-2.07c-.17-.3,0-.46.13-.61s.3-.35.45-.52a2,2,0,0,0,.3-.5.54.54,0,0,0,0-.52c-.07-.15-.68-1.62-.93-2.22s-.5-.5-.68-.5l-.58,0a1.11,1.11,0,0,0-.8.37A3.34,3.34,0,0,0,6.74,9.48,5.78,5.78,0,0,0,8,12.57a12.29,12.29,0,0,0,5.14,4.51c3.06,1.19,3.06.8,3.61.75a3,3,0,0,0,2-1.42A2.48,2.48,0,0,0,18.93,15Z"/><path class="c" d="M18.93,15"/></svg>